solid OpenSCAD_Model
  facet normal 1 -0 0
    outer loop
      vertex 80 80 1
      vertex 80 85 0
      vertex 80 85 1
    endloop
  endfacet
  facet normal 1 0 0
    outer loop
      vertex 80 85 0
      vertex 80 80 1
      vertex 80 80 0
    endloop
  endfacet
  facet normal -0 0 1
    outer loop
      vertex 0 20 1
      vertex 5 5 1
      vertex 5 20 1
    endloop
  endfacet
  facet normal 0 0 1
    outer loop
      vertex 5 5 1
      vertex 0 20 1
      vertex 0 5 1
    endloop
  endfacet
  facet normal -0 0 1
    outer loop
      vertex 0 40 1
      vertex 5 25 1
      vertex 5 40 1
    endloop
  endfacet
  facet normal 0 0 1
    outer loop
      vertex 5 25 1
      vertex 0 40 1
      vertex 0 25 1
    endloop
  endfacet
  facet normal -0 0 1
    outer loop
      vertex 0 60 1
      vertex 5 45 1
      vertex 5 60 1
    endloop
  endfacet
  facet normal 0 0 1
    outer loop
      vertex 5 45 1
      vertex 0 60 1
      vertex 0 45 1
    endloop
  endfacet
  facet normal -0 0 1
    outer loop
      vertex 0 80 1
      vertex 5 65 1
      vertex 5 80 1
    endloop
  endfacet
  facet normal 0 0 1
    outer loop
      vertex 5 65 1
      vertex 0 80 1
      vertex 0 65 1
    endloop
  endfacet
  facet normal -0 0 1
    outer loop
      vertex 20 20 1
      vertex 25 5 1
      vertex 25 20 1
    endloop
  endfacet
  facet normal 0 0 1
    outer loop
      vertex 25 5 1
      vertex 20 20 1
      vertex 20 5 1
    endloop
  endfacet
  facet normal -0 0 1
    outer loop
      vertex 20 40 1
      vertex 25 25 1
      vertex 25 40 1
    endloop
  endfacet
  facet normal 0 0 1
    outer loop
      vertex 25 25 1
      vertex 20 40 1
      vertex 20 25 1
    endloop
  endfacet
  facet normal -0 0 1
    outer loop
      vertex 20 60 1
      vertex 25 45 1
      vertex 25 60 1
    endloop
  endfacet
  facet normal 0 0 1
    outer loop
      vertex 25 45 1
      vertex 20 60 1
      vertex 20 45 1
    endloop
  endfacet
  facet normal -0 0 1
    outer loop
      vertex 20 80 1
      vertex 25 65 1
      vertex 25 80 1
    endloop
  endfacet
  facet normal 0 0 1
    outer loop
      vertex 25 65 1
      vertex 20 80 1
      vertex 20 65 1
    endloop
  endfacet
  facet normal -0 0 1
    outer loop
      vertex 40 20 1
      vertex 45 5 1
      vertex 45 20 1
    endloop
  endfacet
  facet normal 0 0 1
    outer loop
      vertex 45 5 1
      vertex 40 20 1
      vertex 40 5 1
    endloop
  endfacet
  facet normal -0 0 1
    outer loop
      vertex 40 40 1
      vertex 45 25 1
      vertex 45 40 1
    endloop
  endfacet
  facet normal 0 0 1
    outer loop
      vertex 45 25 1
      vertex 40 40 1
      vertex 40 25 1
    endloop
  endfacet
  facet normal -0 0 1
    outer loop
      vertex 40 60 1
      vertex 45 45 1
      vertex 45 60 1
    endloop
  endfacet
  facet normal 0 0 1
    outer loop
      vertex 45 45 1
      vertex 40 60 1
      vertex 40 45 1
    endloop
  endfacet
  facet normal -0 0 1
    outer loop
      vertex 40 80 1
      vertex 45 65 1
      vertex 45 80 1
    endloop
  endfacet
  facet normal 0 0 1
    outer loop
      vertex 45 65 1
      vertex 40 80 1
      vertex 40 65 1
    endloop
  endfacet
  facet normal -0 0 1
    outer loop
      vertex 60 20 1
      vertex 65 5 1
      vertex 65 20 1
    endloop
  endfacet
  facet normal 0 0 1
    outer loop
      vertex 65 5 1
      vertex 60 20 1
      vertex 60 5 1
    endloop
  endfacet
  facet normal -0 0 1
    outer loop
      vertex 60 40 1
      vertex 65 25 1
      vertex 65 40 1
    endloop
  endfacet
  facet normal 0 0 1
    outer loop
      vertex 65 25 1
      vertex 60 40 1
      vertex 60 25 1
    endloop
  endfacet
  facet normal -0 0 1
    outer loop
      vertex 60 60 1
      vertex 65 45 1
      vertex 65 60 1
    endloop
  endfacet
  facet normal 0 0 1
    outer loop
      vertex 65 45 1
      vertex 60 60 1
      vertex 60 45 1
    endloop
  endfacet
  facet normal -0 0 1
    outer loop
      vertex 60 80 1
      vertex 65 65 1
      vertex 65 80 1
    endloop
  endfacet
  facet normal 0 0 1
    outer loop
      vertex 65 65 1
      vertex 60 80 1
      vertex 60 65 1
    endloop
  endfacet
  facet normal -0 0 1
    outer loop
      vertex 80 20 1
      vertex 85 5 1
      vertex 85 20 1
    endloop
  endfacet
  facet normal 0 0 1
    outer loop
      vertex 85 5 1
      vertex 80 20 1
      vertex 80 5 1
    endloop
  endfacet
  facet normal -0 0 1
    outer loop
      vertex 80 40 1
      vertex 85 25 1
      vertex 85 40 1
    endloop
  endfacet
  facet normal 0 0 1
    outer loop
      vertex 85 25 1
      vertex 80 40 1
      vertex 80 25 1
    endloop
  endfacet
  facet normal -0 0 1
    outer loop
      vertex 80 60 1
      vertex 85 45 1
      vertex 85 60 1
    endloop
  endfacet
  facet normal 0 0 1
    outer loop
      vertex 85 45 1
      vertex 80 60 1
      vertex 80 45 1
    endloop
  endfacet
  facet normal -0 0 1
    outer loop
      vertex 80 80 1
      vertex 85 65 1
      vertex 85 80 1
    endloop
  endfacet
  facet normal 0 0 1
    outer loop
      vertex 85 65 1
      vertex 80 80 1
      vertex 80 65 1
    endloop
  endfacet
  facet normal 0 0 1
    outer loop
      vertex 85 80 1
      vertex 90 90 1
      vertex 85 85 1
    endloop
  endfacet
  facet normal 0 0 1
    outer loop
      vertex 90 90 1
      vertex 80 85 1
      vertex 85 85 1
    endloop
  endfacet
  facet normal 0 0 1
    outer loop
      vertex 65 80 1
      vertex 80 80 1
      vertex 80 85 1
    endloop
  endfacet
  facet normal 0 0 1
    outer loop
      vertex 80 80 1
      vertex 65 80 1
      vertex 80 65 1
    endloop
  endfacet
  facet normal 0 0 1
    outer loop
      vertex 80 65 1
      vertex 65 65 1
      vertex 80 60 1
    endloop
  endfacet
  facet normal 0 0 1
    outer loop
      vertex 65 60 1
      vertex 80 60 1
      vertex 65 65 1
    endloop
  endfacet
  facet normal 0 0 1
    outer loop
      vertex 65 45 1
      vertex 80 45 1
      vertex 65 60 1
    endloop
  endfacet
  facet normal 0 0 1
    outer loop
      vertex 80 45 1
      vertex 65 45 1
      vertex 80 40 1
    endloop
  endfacet
  facet normal 0 0 1
    outer loop
      vertex 80 40 1
      vertex 65 40 1
      vertex 80 25 1
    endloop
  endfacet
  facet normal 0 0 1
    outer loop
      vertex 65 25 1
      vertex 80 25 1
      vertex 65 40 1
    endloop
  endfacet
  facet normal 0 0 1
    outer loop
      vertex 65 80 1
      vertex 80 85 1
      vertex 65 85 1
    endloop
  endfacet
  facet normal 0 0 1
    outer loop
      vertex 90 90 1
      vertex 65 85 1
      vertex 80 85 1
    endloop
  endfacet
  facet normal 0 0 1
    outer loop
      vertex 90 90 1
      vertex 60 85 1
      vertex 65 85 1
    endloop
  endfacet
  facet normal 0 0 1
    outer loop
      vertex 45 80 1
      vertex 60 80 1
      vertex 60 85 1
    endloop
  endfacet
  facet normal 0 0 1
    outer loop
      vertex 60 80 1
      vertex 45 80 1
      vertex 60 65 1
    endloop
  endfacet
  facet normal 0 0 1
    outer loop
      vertex 60 65 1
      vertex 45 65 1
      vertex 60 60 1
    endloop
  endfacet
  facet normal 0 0 1
    outer loop
      vertex 45 60 1
      vertex 60 60 1
      vertex 45 65 1
    endloop
  endfacet
  facet normal 0 0 1
    outer loop
      vertex 45 45 1
      vertex 60 45 1
      vertex 45 60 1
    endloop
  endfacet
  facet normal 0 0 1
    outer loop
      vertex 60 45 1
      vertex 45 45 1
      vertex 60 40 1
    endloop
  endfacet
  facet normal 0 0 1
    outer loop
      vertex 60 40 1
      vertex 45 40 1
      vertex 60 25 1
    endloop
  endfacet
  facet normal 0 0 1
    outer loop
      vertex 45 25 1
      vertex 60 25 1
      vertex 45 40 1
    endloop
  endfacet
  facet normal 0 0 1
    outer loop
      vertex 45 80 1
      vertex 60 85 1
      vertex 45 85 1
    endloop
  endfacet
  facet normal 0 0 1
    outer loop
      vertex 90 90 1
      vertex 45 85 1
      vertex 60 85 1
    endloop
  endfacet
  facet normal -0 0 1
    outer loop
      vertex 0 90 1
      vertex 45 85 1
      vertex 90 90 1
    endloop
  endfacet
  facet normal 0 0 1
    outer loop
      vertex 25 80 1
      vertex 40 80 1
      vertex 40 85 1
    endloop
  endfacet
  facet normal 0 0 1
    outer loop
      vertex 40 80 1
      vertex 25 80 1
      vertex 40 65 1
    endloop
  endfacet
  facet normal 0 0 1
    outer loop
      vertex 40 65 1
      vertex 25 65 1
      vertex 40 60 1
    endloop
  endfacet
  facet normal 0 0 1
    outer loop
      vertex 25 60 1
      vertex 40 60 1
      vertex 25 65 1
    endloop
  endfacet
  facet normal 0 0 1
    outer loop
      vertex 25 45 1
      vertex 40 45 1
      vertex 25 60 1
    endloop
  endfacet
  facet normal 0 0 1
    outer loop
      vertex 40 45 1
      vertex 25 45 1
      vertex 40 40 1
    endloop
  endfacet
  facet normal 0 0 1
    outer loop
      vertex 40 40 1
      vertex 25 40 1
      vertex 40 25 1
    endloop
  endfacet
  facet normal 0 0 1
    outer loop
      vertex 25 25 1
      vertex 40 25 1
      vertex 25 40 1
    endloop
  endfacet
  facet normal 0 0 1
    outer loop
      vertex 25 80 1
      vertex 40 85 1
      vertex 25 85 1
    endloop
  endfacet
  facet normal 0 0 1
    outer loop
      vertex 45 85 1
      vertex 0 90 1
      vertex 40 85 1
    endloop
  endfacet
  facet normal 0 0 1
    outer loop
      vertex 40 85 1
      vertex 0 90 1
      vertex 25 85 1
    endloop
  endfacet
  facet normal 0 0 1
    outer loop
      vertex 5 80 1
      vertex 20 80 1
      vertex 20 85 1
    endloop
  endfacet
  facet normal 0 0 1
    outer loop
      vertex 20 80 1
      vertex 5 80 1
      vertex 20 65 1
    endloop
  endfacet
  facet normal 0 0 1
    outer loop
      vertex 20 65 1
      vertex 5 65 1
      vertex 20 60 1
    endloop
  endfacet
  facet normal 0 0 1
    outer loop
      vertex 5 60 1
      vertex 20 60 1
      vertex 5 65 1
    endloop
  endfacet
  facet normal 0 0 1
    outer loop
      vertex 5 45 1
      vertex 20 45 1
      vertex 5 60 1
    endloop
  endfacet
  facet normal 0 0 1
    outer loop
      vertex 20 45 1
      vertex 5 45 1
      vertex 20 40 1
    endloop
  endfacet
  facet normal 0 0 1
    outer loop
      vertex 20 40 1
      vertex 5 40 1
      vertex 20 25 1
    endloop
  endfacet
  facet normal 0 0 1
    outer loop
      vertex 5 25 1
      vertex 20 25 1
      vertex 5 40 1
    endloop
  endfacet
  facet normal 0 0 1
    outer loop
      vertex 5 80 1
      vertex 20 85 1
      vertex 5 85 1
    endloop
  endfacet
  facet normal 0 0 1
    outer loop
      vertex 25 85 1
      vertex 0 90 1
      vertex 20 85 1
    endloop
  endfacet
  facet normal 0 0 1
    outer loop
      vertex 20 85 1
      vertex 0 90 1
      vertex 5 85 1
    endloop
  endfacet
  facet normal 0 0 1
    outer loop
      vertex 5 85 1
      vertex 0 90 1
      vertex 0 85 1
    endloop
  endfacet
  facet normal 0 0 1
    outer loop
      vertex 85 65 1
      vertex 90 90 1
      vertex 85 80 1
    endloop
  endfacet
  facet normal 0 0 1
    outer loop
      vertex 85 60 1
      vertex 90 90 1
      vertex 85 65 1
    endloop
  endfacet
  facet normal 0 0 1
    outer loop
      vertex 85 45 1
      vertex 90 90 1
      vertex 85 60 1
    endloop
  endfacet
  facet normal 0 0 1
    outer loop
      vertex 90 90 1
      vertex 85 45 1
      vertex 90 0 1
    endloop
  endfacet
  facet normal -0 0 1
    outer loop
      vertex 85 40 1
      vertex 90 0 1
      vertex 85 45 1
    endloop
  endfacet
  facet normal -0 0 1
    outer loop
      vertex 85 25 1
      vertex 90 0 1
      vertex 85 40 1
    endloop
  endfacet
  facet normal -0 0 1
    outer loop
      vertex 85 20 1
      vertex 90 0 1
      vertex 85 25 1
    endloop
  endfacet
  facet normal -0 0 1
    outer loop
      vertex 85 5 1
      vertex 90 0 1
      vertex 85 20 1
    endloop
  endfacet
  facet normal 0 0 1
    outer loop
      vertex 90 0 1
      vertex 85 5 1
      vertex 85 0 1
    endloop
  endfacet
  facet normal 0 0 1
    outer loop
      vertex 80 65 1
      vertex 65 80 1
      vertex 65 65 1
    endloop
  endfacet
  facet normal 0 0 1
    outer loop
      vertex 80 60 1
      vertex 65 60 1
      vertex 80 45 1
    endloop
  endfacet
  facet normal 0 0 1
    outer loop
      vertex 65 40 1
      vertex 80 40 1
      vertex 65 45 1
    endloop
  endfacet
  facet normal 0 0 1
    outer loop
      vertex 80 25 1
      vertex 65 25 1
      vertex 80 20 1
    endloop
  endfacet
  facet normal 0 0 1
    outer loop
      vertex 65 20 1
      vertex 80 20 1
      vertex 65 25 1
    endloop
  endfacet
  facet normal 0 0 1
    outer loop
      vertex 80 20 1
      vertex 65 20 1
      vertex 80 5 1
    endloop
  endfacet
  facet normal 0 0 1
    outer loop
      vertex 65 5 1
      vertex 80 5 1
      vertex 65 20 1
    endloop
  endfacet
  facet normal 0 0 1
    outer loop
      vertex 80 5 1
      vertex 65 5 1
      vertex 80 0 1
    endloop
  endfacet
  facet normal 0 0 1
    outer loop
      vertex 80 0 1
      vertex 65 5 1
      vertex 65 0 1
    endloop
  endfacet
  facet normal 0 0 1
    outer loop
      vertex 60 65 1
      vertex 45 80 1
      vertex 45 65 1
    endloop
  endfacet
  facet normal 0 0 1
    outer loop
      vertex 60 60 1
      vertex 45 60 1
      vertex 60 45 1
    endloop
  endfacet
  facet normal 0 0 1
    outer loop
      vertex 45 40 1
      vertex 60 40 1
      vertex 45 45 1
    endloop
  endfacet
  facet normal 0 0 1
    outer loop
      vertex 60 25 1
      vertex 45 25 1
      vertex 60 20 1
    endloop
  endfacet
  facet normal 0 0 1
    outer loop
      vertex 45 20 1
      vertex 60 20 1
      vertex 45 25 1
    endloop
  endfacet
  facet normal 0 0 1
    outer loop
      vertex 60 20 1
      vertex 45 20 1
      vertex 60 5 1
    endloop
  endfacet
  facet normal 0 0 1
    outer loop
      vertex 45 5 1
      vertex 60 5 1
      vertex 45 20 1
    endloop
  endfacet
  facet normal 0 0 1
    outer loop
      vertex 60 5 1
      vertex 45 5 1
      vertex 60 0 1
    endloop
  endfacet
  facet normal 0 0 1
    outer loop
      vertex 60 0 1
      vertex 45 5 1
      vertex 45 0 1
    endloop
  endfacet
  facet normal 0 0 1
    outer loop
      vertex 40 65 1
      vertex 25 80 1
      vertex 25 65 1
    endloop
  endfacet
  facet normal 0 0 1
    outer loop
      vertex 40 60 1
      vertex 25 60 1
      vertex 40 45 1
    endloop
  endfacet
  facet normal 0 0 1
    outer loop
      vertex 25 40 1
      vertex 40 40 1
      vertex 25 45 1
    endloop
  endfacet
  facet normal 0 0 1
    outer loop
      vertex 40 25 1
      vertex 25 25 1
      vertex 40 20 1
    endloop
  endfacet
  facet normal 0 0 1
    outer loop
      vertex 25 20 1
      vertex 40 20 1
      vertex 25 25 1
    endloop
  endfacet
  facet normal 0 0 1
    outer loop
      vertex 40 20 1
      vertex 25 20 1
      vertex 40 5 1
    endloop
  endfacet
  facet normal 0 0 1
    outer loop
      vertex 25 5 1
      vertex 40 5 1
      vertex 25 20 1
    endloop
  endfacet
  facet normal 0 0 1
    outer loop
      vertex 40 5 1
      vertex 25 5 1
      vertex 40 0 1
    endloop
  endfacet
  facet normal 0 0 1
    outer loop
      vertex 40 0 1
      vertex 25 5 1
      vertex 25 0 1
    endloop
  endfacet
  facet normal 0 0 1
    outer loop
      vertex 20 65 1
      vertex 5 80 1
      vertex 5 65 1
    endloop
  endfacet
  facet normal 0 0 1
    outer loop
      vertex 20 60 1
      vertex 5 60 1
      vertex 20 45 1
    endloop
  endfacet
  facet normal 0 0 1
    outer loop
      vertex 5 40 1
      vertex 20 40 1
      vertex 5 45 1
    endloop
  endfacet
  facet normal 0 0 1
    outer loop
      vertex 20 25 1
      vertex 5 25 1
      vertex 20 20 1
    endloop
  endfacet
  facet normal 0 0 1
    outer loop
      vertex 5 20 1
      vertex 20 20 1
      vertex 5 25 1
    endloop
  endfacet
  facet normal 0 0 1
    outer loop
      vertex 20 20 1
      vertex 5 20 1
      vertex 20 5 1
    endloop
  endfacet
  facet normal 0 0 1
    outer loop
      vertex 5 5 1
      vertex 20 5 1
      vertex 5 20 1
    endloop
  endfacet
  facet normal 0 0 1
    outer loop
      vertex 20 5 1
      vertex 5 5 1
      vertex 20 0 1
    endloop
  endfacet
  facet normal 0 0 1
    outer loop
      vertex 20 0 1
      vertex 5 5 1
      vertex 5 0 1
    endloop
  endfacet
  facet normal -1 0 0
    outer loop
      vertex 85 80 0
      vertex 85 85 1
      vertex 85 85 0
    endloop
  endfacet
  facet normal -1 -0 0
    outer loop
      vertex 85 85 1
      vertex 85 80 0
      vertex 85 80 1
    endloop
  endfacet
  facet normal 0 0 -1
    outer loop
      vertex 0 65 0
      vertex 5 80 0
      vertex 5 65 0
    endloop
  endfacet
  facet normal -0 0 -1
    outer loop
      vertex 5 80 0
      vertex 0 65 0
      vertex 0 80 0
    endloop
  endfacet
  facet normal 0 0 -1
    outer loop
      vertex 0 45 0
      vertex 5 60 0
      vertex 5 45 0
    endloop
  endfacet
  facet normal -0 0 -1
    outer loop
      vertex 5 60 0
      vertex 0 45 0
      vertex 0 60 0
    endloop
  endfacet
  facet normal 0 0 -1
    outer loop
      vertex 0 25 0
      vertex 5 40 0
      vertex 5 25 0
    endloop
  endfacet
  facet normal -0 0 -1
    outer loop
      vertex 5 40 0
      vertex 0 25 0
      vertex 0 40 0
    endloop
  endfacet
  facet normal 0 0 -1
    outer loop
      vertex 0 5 0
      vertex 5 20 0
      vertex 5 5 0
    endloop
  endfacet
  facet normal -0 0 -1
    outer loop
      vertex 5 20 0
      vertex 0 5 0
      vertex 0 20 0
    endloop
  endfacet
  facet normal 0 0 -1
    outer loop
      vertex 5 5 0
      vertex 20 5 0
      vertex 20 0 0
    endloop
  endfacet
  facet normal 0 0 -1
    outer loop
      vertex 20 5 0
      vertex 5 5 0
      vertex 20 20 0
    endloop
  endfacet
  facet normal 0 0 -1
    outer loop
      vertex 20 20 0
      vertex 5 20 0
      vertex 20 25 0
    endloop
  endfacet
  facet normal 0 0 -1
    outer loop
      vertex 5 25 0
      vertex 20 25 0
      vertex 5 20 0
    endloop
  endfacet
  facet normal 0 0 -1
    outer loop
      vertex 5 40 0
      vertex 20 40 0
      vertex 5 25 0
    endloop
  endfacet
  facet normal 0 0 -1
    outer loop
      vertex 20 40 0
      vertex 5 40 0
      vertex 20 45 0
    endloop
  endfacet
  facet normal 0 0 -1
    outer loop
      vertex 20 45 0
      vertex 5 45 0
      vertex 20 60 0
    endloop
  endfacet
  facet normal 0 0 -1
    outer loop
      vertex 5 60 0
      vertex 20 60 0
      vertex 5 45 0
    endloop
  endfacet
  facet normal 0 0 -1
    outer loop
      vertex 5 5 0
      vertex 20 0 0
      vertex 5 0 0
    endloop
  endfacet
  facet normal 0 0 -1
    outer loop
      vertex 20 65 0
      vertex 25 80 0
      vertex 25 65 0
    endloop
  endfacet
  facet normal -0 0 -1
    outer loop
      vertex 25 80 0
      vertex 20 65 0
      vertex 20 80 0
    endloop
  endfacet
  facet normal 0 0 -1
    outer loop
      vertex 20 45 0
      vertex 25 60 0
      vertex 25 45 0
    endloop
  endfacet
  facet normal -0 0 -1
    outer loop
      vertex 25 60 0
      vertex 20 45 0
      vertex 20 60 0
    endloop
  endfacet
  facet normal 0 0 -1
    outer loop
      vertex 20 25 0
      vertex 25 40 0
      vertex 25 25 0
    endloop
  endfacet
  facet normal -0 0 -1
    outer loop
      vertex 25 40 0
      vertex 20 25 0
      vertex 20 40 0
    endloop
  endfacet
  facet normal 0 0 -1
    outer loop
      vertex 20 5 0
      vertex 25 20 0
      vertex 25 5 0
    endloop
  endfacet
  facet normal -0 0 -1
    outer loop
      vertex 25 20 0
      vertex 20 5 0
      vertex 20 20 0
    endloop
  endfacet
  facet normal 0 0 -1
    outer loop
      vertex 25 5 0
      vertex 40 5 0
      vertex 40 0 0
    endloop
  endfacet
  facet normal 0 0 -1
    outer loop
      vertex 40 5 0
      vertex 25 5 0
      vertex 40 20 0
    endloop
  endfacet
  facet normal 0 0 -1
    outer loop
      vertex 40 20 0
      vertex 25 20 0
      vertex 40 25 0
    endloop
  endfacet
  facet normal 0 0 -1
    outer loop
      vertex 25 25 0
      vertex 40 25 0
      vertex 25 20 0
    endloop
  endfacet
  facet normal 0 0 -1
    outer loop
      vertex 25 40 0
      vertex 40 40 0
      vertex 25 25 0
    endloop
  endfacet
  facet normal 0 0 -1
    outer loop
      vertex 40 40 0
      vertex 25 40 0
      vertex 40 45 0
    endloop
  endfacet
  facet normal 0 0 -1
    outer loop
      vertex 40 45 0
      vertex 25 45 0
      vertex 40 60 0
    endloop
  endfacet
  facet normal 0 0 -1
    outer loop
      vertex 25 60 0
      vertex 40 60 0
      vertex 25 45 0
    endloop
  endfacet
  facet normal 0 0 -1
    outer loop
      vertex 25 5 0
      vertex 40 0 0
      vertex 25 0 0
    endloop
  endfacet
  facet normal 0 0 -1
    outer loop
      vertex 40 65 0
      vertex 45 80 0
      vertex 45 65 0
    endloop
  endfacet
  facet normal -0 0 -1
    outer loop
      vertex 45 80 0
      vertex 40 65 0
      vertex 40 80 0
    endloop
  endfacet
  facet normal 0 0 -1
    outer loop
      vertex 40 45 0
      vertex 45 60 0
      vertex 45 45 0
    endloop
  endfacet
  facet normal -0 0 -1
    outer loop
      vertex 45 60 0
      vertex 40 45 0
      vertex 40 60 0
    endloop
  endfacet
  facet normal 0 0 -1
    outer loop
      vertex 40 25 0
      vertex 45 40 0
      vertex 45 25 0
    endloop
  endfacet
  facet normal -0 0 -1
    outer loop
      vertex 45 40 0
      vertex 40 25 0
      vertex 40 40 0
    endloop
  endfacet
  facet normal 0 0 -1
    outer loop
      vertex 40 5 0
      vertex 45 20 0
      vertex 45 5 0
    endloop
  endfacet
  facet normal -0 0 -1
    outer loop
      vertex 45 20 0
      vertex 40 5 0
      vertex 40 20 0
    endloop
  endfacet
  facet normal 0 0 -1
    outer loop
      vertex 45 5 0
      vertex 60 5 0
      vertex 60 0 0
    endloop
  endfacet
  facet normal 0 0 -1
    outer loop
      vertex 60 5 0
      vertex 45 5 0
      vertex 60 20 0
    endloop
  endfacet
  facet normal 0 0 -1
    outer loop
      vertex 60 20 0
      vertex 45 20 0
      vertex 60 25 0
    endloop
  endfacet
  facet normal 0 0 -1
    outer loop
      vertex 45 25 0
      vertex 60 25 0
      vertex 45 20 0
    endloop
  endfacet
  facet normal 0 0 -1
    outer loop
      vertex 45 40 0
      vertex 60 40 0
      vertex 45 25 0
    endloop
  endfacet
  facet normal 0 0 -1
    outer loop
      vertex 60 40 0
      vertex 45 40 0
      vertex 60 45 0
    endloop
  endfacet
  facet normal 0 0 -1
    outer loop
      vertex 60 45 0
      vertex 45 45 0
      vertex 60 60 0
    endloop
  endfacet
  facet normal 0 0 -1
    outer loop
      vertex 45 60 0
      vertex 60 60 0
      vertex 45 45 0
    endloop
  endfacet
  facet normal 0 0 -1
    outer loop
      vertex 45 5 0
      vertex 60 0 0
      vertex 45 0 0
    endloop
  endfacet
  facet normal 0 0 -1
    outer loop
      vertex 60 65 0
      vertex 65 80 0
      vertex 65 65 0
    endloop
  endfacet
  facet normal -0 0 -1
    outer loop
      vertex 65 80 0
      vertex 60 65 0
      vertex 60 80 0
    endloop
  endfacet
  facet normal 0 0 -1
    outer loop
      vertex 60 45 0
      vertex 65 60 0
      vertex 65 45 0
    endloop
  endfacet
  facet normal -0 0 -1
    outer loop
      vertex 65 60 0
      vertex 60 45 0
      vertex 60 60 0
    endloop
  endfacet
  facet normal 0 0 -1
    outer loop
      vertex 60 25 0
      vertex 65 40 0
      vertex 65 25 0
    endloop
  endfacet
  facet normal -0 0 -1
    outer loop
      vertex 65 40 0
      vertex 60 25 0
      vertex 60 40 0
    endloop
  endfacet
  facet normal 0 0 -1
    outer loop
      vertex 60 5 0
      vertex 65 20 0
      vertex 65 5 0
    endloop
  endfacet
  facet normal -0 0 -1
    outer loop
      vertex 65 20 0
      vertex 60 5 0
      vertex 60 20 0
    endloop
  endfacet
  facet normal 0 0 -1
    outer loop
      vertex 65 5 0
      vertex 80 5 0
      vertex 80 0 0
    endloop
  endfacet
  facet normal 0 0 -1
    outer loop
      vertex 80 5 0
      vertex 65 5 0
      vertex 80 20 0
    endloop
  endfacet
  facet normal 0 0 -1
    outer loop
      vertex 80 20 0
      vertex 65 20 0
      vertex 80 25 0
    endloop
  endfacet
  facet normal 0 0 -1
    outer loop
      vertex 65 25 0
      vertex 80 25 0
      vertex 65 20 0
    endloop
  endfacet
  facet normal 0 0 -1
    outer loop
      vertex 65 40 0
      vertex 80 40 0
      vertex 65 25 0
    endloop
  endfacet
  facet normal 0 0 -1
    outer loop
      vertex 80 40 0
      vertex 65 40 0
      vertex 80 45 0
    endloop
  endfacet
  facet normal 0 0 -1
    outer loop
      vertex 80 45 0
      vertex 65 45 0
      vertex 80 60 0
    endloop
  endfacet
  facet normal 0 0 -1
    outer loop
      vertex 65 60 0
      vertex 80 60 0
      vertex 65 45 0
    endloop
  endfacet
  facet normal 0 0 -1
    outer loop
      vertex 65 5 0
      vertex 80 0 0
      vertex 65 0 0
    endloop
  endfacet
  facet normal 0 0 -1
    outer loop
      vertex 80 65 0
      vertex 85 80 0
      vertex 85 65 0
    endloop
  endfacet
  facet normal -0 0 -1
    outer loop
      vertex 85 80 0
      vertex 80 65 0
      vertex 80 80 0
    endloop
  endfacet
  facet normal 0 0 -1
    outer loop
      vertex 80 45 0
      vertex 85 60 0
      vertex 85 45 0
    endloop
  endfacet
  facet normal -0 0 -1
    outer loop
      vertex 85 60 0
      vertex 80 45 0
      vertex 80 60 0
    endloop
  endfacet
  facet normal 0 0 -1
    outer loop
      vertex 80 25 0
      vertex 85 40 0
      vertex 85 25 0
    endloop
  endfacet
  facet normal -0 0 -1
    outer loop
      vertex 85 40 0
      vertex 80 25 0
      vertex 80 40 0
    endloop
  endfacet
  facet normal 0 0 -1
    outer loop
      vertex 80 5 0
      vertex 85 20 0
      vertex 85 5 0
    endloop
  endfacet
  facet normal -0 0 -1
    outer loop
      vertex 85 20 0
      vertex 80 5 0
      vertex 80 20 0
    endloop
  endfacet
  facet normal 0 0 -1
    outer loop
      vertex 85 5 0
      vertex 90 0 0
      vertex 85 0 0
    endloop
  endfacet
  facet normal 0 0 -1
    outer loop
      vertex 85 20 0
      vertex 90 0 0
      vertex 85 5 0
    endloop
  endfacet
  facet normal 0 0 -1
    outer loop
      vertex 85 25 0
      vertex 90 0 0
      vertex 85 20 0
    endloop
  endfacet
  facet normal 0 0 -1
    outer loop
      vertex 85 40 0
      vertex 90 0 0
      vertex 85 25 0
    endloop
  endfacet
  facet normal 0 0 -1
    outer loop
      vertex 85 45 0
      vertex 90 0 0
      vertex 85 40 0
    endloop
  endfacet
  facet normal 0 0 -1
    outer loop
      vertex 90 0 0
      vertex 85 45 0
      vertex 90 90 0
    endloop
  endfacet
  facet normal 0 0 -1
    outer loop
      vertex 85 60 0
      vertex 90 90 0
      vertex 85 45 0
    endloop
  endfacet
  facet normal 0 0 -1
    outer loop
      vertex 85 65 0
      vertex 90 90 0
      vertex 85 60 0
    endloop
  endfacet
  facet normal 0 0 -1
    outer loop
      vertex 85 80 0
      vertex 90 90 0
      vertex 85 65 0
    endloop
  endfacet
  facet normal 0 0 -1
    outer loop
      vertex 85 85 0
      vertex 90 90 0
      vertex 85 80 0
    endloop
  endfacet
  facet normal 0 0 -1
    outer loop
      vertex 80 85 0
      vertex 90 90 0
      vertex 85 85 0
    endloop
  endfacet
  facet normal -0 0 -1
    outer loop
      vertex 80 20 0
      vertex 65 5 0
      vertex 65 20 0
    endloop
  endfacet
  facet normal 0 0 -1
    outer loop
      vertex 80 25 0
      vertex 65 25 0
      vertex 80 40 0
    endloop
  endfacet
  facet normal 0 0 -1
    outer loop
      vertex 65 45 0
      vertex 80 45 0
      vertex 65 40 0
    endloop
  endfacet
  facet normal 0 0 -1
    outer loop
      vertex 80 60 0
      vertex 65 60 0
      vertex 80 65 0
    endloop
  endfacet
  facet normal 0 0 -1
    outer loop
      vertex 65 65 0
      vertex 80 65 0
      vertex 65 60 0
    endloop
  endfacet
  facet normal 0 0 -1
    outer loop
      vertex 80 65 0
      vertex 65 65 0
      vertex 80 80 0
    endloop
  endfacet
  facet normal 0 0 -1
    outer loop
      vertex 65 80 0
      vertex 80 80 0
      vertex 65 65 0
    endloop
  endfacet
  facet normal 0 0 -1
    outer loop
      vertex 80 80 0
      vertex 65 80 0
      vertex 80 85 0
    endloop
  endfacet
  facet normal 0 0 -1
    outer loop
      vertex 65 85 0
      vertex 80 85 0
      vertex 65 80 0
    endloop
  endfacet
  facet normal 0 0 -1
    outer loop
      vertex 80 85 0
      vertex 65 85 0
      vertex 90 90 0
    endloop
  endfacet
  facet normal 0 0 -1
    outer loop
      vertex 60 85 0
      vertex 90 90 0
      vertex 65 85 0
    endloop
  endfacet
  facet normal -0 0 -1
    outer loop
      vertex 60 20 0
      vertex 45 5 0
      vertex 45 20 0
    endloop
  endfacet
  facet normal 0 0 -1
    outer loop
      vertex 60 25 0
      vertex 45 25 0
      vertex 60 40 0
    endloop
  endfacet
  facet normal 0 0 -1
    outer loop
      vertex 45 45 0
      vertex 60 45 0
      vertex 45 40 0
    endloop
  endfacet
  facet normal 0 0 -1
    outer loop
      vertex 60 60 0
      vertex 45 60 0
      vertex 60 65 0
    endloop
  endfacet
  facet normal 0 0 -1
    outer loop
      vertex 45 65 0
      vertex 60 65 0
      vertex 45 60 0
    endloop
  endfacet
  facet normal 0 0 -1
    outer loop
      vertex 60 65 0
      vertex 45 65 0
      vertex 60 80 0
    endloop
  endfacet
  facet normal 0 0 -1
    outer loop
      vertex 45 80 0
      vertex 60 80 0
      vertex 45 65 0
    endloop
  endfacet
  facet normal 0 0 -1
    outer loop
      vertex 60 80 0
      vertex 45 80 0
      vertex 60 85 0
    endloop
  endfacet
  facet normal 0 0 -1
    outer loop
      vertex 45 85 0
      vertex 60 85 0
      vertex 45 80 0
    endloop
  endfacet
  facet normal 0 0 -1
    outer loop
      vertex 45 85 0
      vertex 90 90 0
      vertex 60 85 0
    endloop
  endfacet
  facet normal 0 0 -1
    outer loop
      vertex 0 90 0
      vertex 45 85 0
      vertex 40 85 0
    endloop
  endfacet
  facet normal -0 0 -1
    outer loop
      vertex 40 20 0
      vertex 25 5 0
      vertex 25 20 0
    endloop
  endfacet
  facet normal 0 0 -1
    outer loop
      vertex 40 25 0
      vertex 25 25 0
      vertex 40 40 0
    endloop
  endfacet
  facet normal 0 0 -1
    outer loop
      vertex 25 45 0
      vertex 40 45 0
      vertex 25 40 0
    endloop
  endfacet
  facet normal 0 0 -1
    outer loop
      vertex 40 60 0
      vertex 25 60 0
      vertex 40 65 0
    endloop
  endfacet
  facet normal 0 0 -1
    outer loop
      vertex 25 65 0
      vertex 40 65 0
      vertex 25 60 0
    endloop
  endfacet
  facet normal 0 0 -1
    outer loop
      vertex 40 65 0
      vertex 25 65 0
      vertex 40 80 0
    endloop
  endfacet
  facet normal 0 0 -1
    outer loop
      vertex 25 80 0
      vertex 40 80 0
      vertex 25 65 0
    endloop
  endfacet
  facet normal 0 0 -1
    outer loop
      vertex 40 80 0
      vertex 25 80 0
      vertex 40 85 0
    endloop
  endfacet
  facet normal 0 0 -1
    outer loop
      vertex 25 85 0
      vertex 40 85 0
      vertex 25 80 0
    endloop
  endfacet
  facet normal 0 0 -1
    outer loop
      vertex 0 90 0
      vertex 40 85 0
      vertex 25 85 0
    endloop
  endfacet
  facet normal 0 0 -1
    outer loop
      vertex 0 90 0
      vertex 25 85 0
      vertex 20 85 0
    endloop
  endfacet
  facet normal -0 0 -1
    outer loop
      vertex 20 20 0
      vertex 5 5 0
      vertex 5 20 0
    endloop
  endfacet
  facet normal 0 0 -1
    outer loop
      vertex 20 25 0
      vertex 5 25 0
      vertex 20 40 0
    endloop
  endfacet
  facet normal 0 0 -1
    outer loop
      vertex 5 45 0
      vertex 20 45 0
      vertex 5 40 0
    endloop
  endfacet
  facet normal 0 0 -1
    outer loop
      vertex 20 60 0
      vertex 5 60 0
      vertex 20 65 0
    endloop
  endfacet
  facet normal 0 0 -1
    outer loop
      vertex 5 65 0
      vertex 20 65 0
      vertex 5 60 0
    endloop
  endfacet
  facet normal 0 0 -1
    outer loop
      vertex 20 65 0
      vertex 5 65 0
      vertex 20 80 0
    endloop
  endfacet
  facet normal 0 0 -1
    outer loop
      vertex 5 80 0
      vertex 20 80 0
      vertex 5 65 0
    endloop
  endfacet
  facet normal 0 0 -1
    outer loop
      vertex 20 80 0
      vertex 5 80 0
      vertex 20 85 0
    endloop
  endfacet
  facet normal 0 0 -1
    outer loop
      vertex 5 85 0
      vertex 20 85 0
      vertex 5 80 0
    endloop
  endfacet
  facet normal 0 0 -1
    outer loop
      vertex 0 90 0
      vertex 20 85 0
      vertex 5 85 0
    endloop
  endfacet
  facet normal 0 0 -1
    outer loop
      vertex 0 90 0
      vertex 5 85 0
      vertex 0 85 0
    endloop
  endfacet
  facet normal 0 0 -1
    outer loop
      vertex 45 85 0
      vertex 0 90 0
      vertex 90 90 0
    endloop
  endfacet
  facet normal 0 1 -0
    outer loop
      vertex 85 80 0
      vertex 80 80 1
      vertex 85 80 1
    endloop
  endfacet
  facet normal 0 1 0
    outer loop
      vertex 80 80 1
      vertex 85 80 0
      vertex 80 80 0
    endloop
  endfacet
  facet normal 0 -1 0
    outer loop
      vertex 80 85 0
      vertex 85 85 1
      vertex 80 85 1
    endloop
  endfacet
  facet normal 0 -1 -0
    outer loop
      vertex 85 85 1
      vertex 80 85 0
      vertex 85 85 0
    endloop
  endfacet
  facet normal 1 -0 0
    outer loop
      vertex 80 60 1
      vertex 80 65 0
      vertex 80 65 1
    endloop
  endfacet
  facet normal 1 0 0
    outer loop
      vertex 80 65 0
      vertex 80 60 1
      vertex 80 60 0
    endloop
  endfacet
  facet normal -1 0 0
    outer loop
      vertex 85 60 0
      vertex 85 65 1
      vertex 85 65 0
    endloop
  endfacet
  facet normal -1 -0 0
    outer loop
      vertex 85 65 1
      vertex 85 60 0
      vertex 85 60 1
    endloop
  endfacet
  facet normal 0 1 -0
    outer loop
      vertex 85 60 0
      vertex 80 60 1
      vertex 85 60 1
    endloop
  endfacet
  facet normal 0 1 0
    outer loop
      vertex 80 60 1
      vertex 85 60 0
      vertex 80 60 0
    endloop
  endfacet
  facet normal 0 -1 0
    outer loop
      vertex 80 65 0
      vertex 85 65 1
      vertex 80 65 1
    endloop
  endfacet
  facet normal 0 -1 -0
    outer loop
      vertex 85 65 1
      vertex 80 65 0
      vertex 85 65 0
    endloop
  endfacet
  facet normal 1 -0 0
    outer loop
      vertex 80 40 1
      vertex 80 45 0
      vertex 80 45 1
    endloop
  endfacet
  facet normal 1 0 0
    outer loop
      vertex 80 45 0
      vertex 80 40 1
      vertex 80 40 0
    endloop
  endfacet
  facet normal -1 0 0
    outer loop
      vertex 85 40 0
      vertex 85 45 1
      vertex 85 45 0
    endloop
  endfacet
  facet normal -1 -0 0
    outer loop
      vertex 85 45 1
      vertex 85 40 0
      vertex 85 40 1
    endloop
  endfacet
  facet normal 0 -1 0
    outer loop
      vertex 80 45 0
      vertex 85 45 1
      vertex 80 45 1
    endloop
  endfacet
  facet normal 0 -1 -0
    outer loop
      vertex 85 45 1
      vertex 80 45 0
      vertex 85 45 0
    endloop
  endfacet
  facet normal 0 1 -0
    outer loop
      vertex 85 40 0
      vertex 80 40 1
      vertex 85 40 1
    endloop
  endfacet
  facet normal 0 1 0
    outer loop
      vertex 80 40 1
      vertex 85 40 0
      vertex 80 40 0
    endloop
  endfacet
  facet normal 1 -0 0
    outer loop
      vertex 80 20 1
      vertex 80 25 0
      vertex 80 25 1
    endloop
  endfacet
  facet normal 1 0 0
    outer loop
      vertex 80 25 0
      vertex 80 20 1
      vertex 80 20 0
    endloop
  endfacet
  facet normal -1 0 0
    outer loop
      vertex 85 20 0
      vertex 85 25 1
      vertex 85 25 0
    endloop
  endfacet
  facet normal -1 -0 0
    outer loop
      vertex 85 25 1
      vertex 85 20 0
      vertex 85 20 1
    endloop
  endfacet
  facet normal 0 -1 0
    outer loop
      vertex 80 25 0
      vertex 85 25 1
      vertex 80 25 1
    endloop
  endfacet
  facet normal 0 -1 -0
    outer loop
      vertex 85 25 1
      vertex 80 25 0
      vertex 85 25 0
    endloop
  endfacet
  facet normal 0 1 -0
    outer loop
      vertex 85 20 0
      vertex 80 20 1
      vertex 85 20 1
    endloop
  endfacet
  facet normal 0 1 0
    outer loop
      vertex 80 20 1
      vertex 85 20 0
      vertex 80 20 0
    endloop
  endfacet
  facet normal 1 -0 0
    outer loop
      vertex 80 0 1
      vertex 80 5 0
      vertex 80 5 1
    endloop
  endfacet
  facet normal 1 0 0
    outer loop
      vertex 80 5 0
      vertex 80 0 1
      vertex 80 0 0
    endloop
  endfacet
  facet normal -1 0 0
    outer loop
      vertex 85 0 0
      vertex 85 5 1
      vertex 85 5 0
    endloop
  endfacet
  facet normal -1 -0 0
    outer loop
      vertex 85 5 1
      vertex 85 0 0
      vertex 85 0 1
    endloop
  endfacet
  facet normal 0 -1 0
    outer loop
      vertex 85 0 0
      vertex 90 0 1
      vertex 85 0 1
    endloop
  endfacet
  facet normal 0 -1 -0
    outer loop
      vertex 90 0 1
      vertex 85 0 0
      vertex 90 0 0
    endloop
  endfacet
  facet normal 0 -1 0
    outer loop
      vertex 5 0 0
      vertex 20 0 1
      vertex 5 0 1
    endloop
  endfacet
  facet normal 0 -1 -0
    outer loop
      vertex 20 0 1
      vertex 5 0 0
      vertex 20 0 0
    endloop
  endfacet
  facet normal 0 -1 0
    outer loop
      vertex 25 0 0
      vertex 40 0 1
      vertex 25 0 1
    endloop
  endfacet
  facet normal 0 -1 -0
    outer loop
      vertex 40 0 1
      vertex 25 0 0
      vertex 40 0 0
    endloop
  endfacet
  facet normal 0 -1 0
    outer loop
      vertex 45 0 0
      vertex 60 0 1
      vertex 45 0 1
    endloop
  endfacet
  facet normal 0 -1 -0
    outer loop
      vertex 60 0 1
      vertex 45 0 0
      vertex 60 0 0
    endloop
  endfacet
  facet normal 0 -1 0
    outer loop
      vertex 65 0 0
      vertex 80 0 1
      vertex 65 0 1
    endloop
  endfacet
  facet normal 0 -1 -0
    outer loop
      vertex 80 0 1
      vertex 65 0 0
      vertex 80 0 0
    endloop
  endfacet
  facet normal 0 -1 0
    outer loop
      vertex 80 5 0
      vertex 85 5 1
      vertex 80 5 1
    endloop
  endfacet
  facet normal 0 -1 -0
    outer loop
      vertex 85 5 1
      vertex 80 5 0
      vertex 85 5 0
    endloop
  endfacet
  facet normal 1 -0 0
    outer loop
      vertex 60 80 1
      vertex 60 85 0
      vertex 60 85 1
    endloop
  endfacet
  facet normal 1 0 0
    outer loop
      vertex 60 85 0
      vertex 60 80 1
      vertex 60 80 0
    endloop
  endfacet
  facet normal -1 0 0
    outer loop
      vertex 65 80 0
      vertex 65 85 1
      vertex 65 85 0
    endloop
  endfacet
  facet normal -1 -0 0
    outer loop
      vertex 65 85 1
      vertex 65 80 0
      vertex 65 80 1
    endloop
  endfacet
  facet normal 0 -1 0
    outer loop
      vertex 60 85 0
      vertex 65 85 1
      vertex 60 85 1
    endloop
  endfacet
  facet normal 0 -1 -0
    outer loop
      vertex 65 85 1
      vertex 60 85 0
      vertex 65 85 0
    endloop
  endfacet
  facet normal 0 1 -0
    outer loop
      vertex 65 80 0
      vertex 60 80 1
      vertex 65 80 1
    endloop
  endfacet
  facet normal 0 1 0
    outer loop
      vertex 60 80 1
      vertex 65 80 0
      vertex 60 80 0
    endloop
  endfacet
  facet normal 1 -0 0
    outer loop
      vertex 60 60 1
      vertex 60 65 0
      vertex 60 65 1
    endloop
  endfacet
  facet normal 1 0 0
    outer loop
      vertex 60 65 0
      vertex 60 60 1
      vertex 60 60 0
    endloop
  endfacet
  facet normal -1 0 0
    outer loop
      vertex 65 60 0
      vertex 65 65 1
      vertex 65 65 0
    endloop
  endfacet
  facet normal -1 -0 0
    outer loop
      vertex 65 65 1
      vertex 65 60 0
      vertex 65 60 1
    endloop
  endfacet
  facet normal 0 -1 0
    outer loop
      vertex 60 65 0
      vertex 65 65 1
      vertex 60 65 1
    endloop
  endfacet
  facet normal 0 -1 -0
    outer loop
      vertex 65 65 1
      vertex 60 65 0
      vertex 65 65 0
    endloop
  endfacet
  facet normal 0 1 -0
    outer loop
      vertex 65 60 0
      vertex 60 60 1
      vertex 65 60 1
    endloop
  endfacet
  facet normal 0 1 0
    outer loop
      vertex 60 60 1
      vertex 65 60 0
      vertex 60 60 0
    endloop
  endfacet
  facet normal 1 -0 0
    outer loop
      vertex 60 40 1
      vertex 60 45 0
      vertex 60 45 1
    endloop
  endfacet
  facet normal 1 0 0
    outer loop
      vertex 60 45 0
      vertex 60 40 1
      vertex 60 40 0
    endloop
  endfacet
  facet normal -1 0 0
    outer loop
      vertex 65 40 0
      vertex 65 45 1
      vertex 65 45 0
    endloop
  endfacet
  facet normal -1 -0 0
    outer loop
      vertex 65 45 1
      vertex 65 40 0
      vertex 65 40 1
    endloop
  endfacet
  facet normal 0 -1 0
    outer loop
      vertex 60 45 0
      vertex 65 45 1
      vertex 60 45 1
    endloop
  endfacet
  facet normal 0 -1 -0
    outer loop
      vertex 65 45 1
      vertex 60 45 0
      vertex 65 45 0
    endloop
  endfacet
  facet normal 0 1 -0
    outer loop
      vertex 65 40 0
      vertex 60 40 1
      vertex 65 40 1
    endloop
  endfacet
  facet normal 0 1 0
    outer loop
      vertex 60 40 1
      vertex 65 40 0
      vertex 60 40 0
    endloop
  endfacet
  facet normal 1 -0 0
    outer loop
      vertex 60 20 1
      vertex 60 25 0
      vertex 60 25 1
    endloop
  endfacet
  facet normal 1 0 0
    outer loop
      vertex 60 25 0
      vertex 60 20 1
      vertex 60 20 0
    endloop
  endfacet
  facet normal -1 0 0
    outer loop
      vertex 65 20 0
      vertex 65 25 1
      vertex 65 25 0
    endloop
  endfacet
  facet normal -1 -0 0
    outer loop
      vertex 65 25 1
      vertex 65 20 0
      vertex 65 20 1
    endloop
  endfacet
  facet normal 0 -1 0
    outer loop
      vertex 60 25 0
      vertex 65 25 1
      vertex 60 25 1
    endloop
  endfacet
  facet normal 0 -1 -0
    outer loop
      vertex 65 25 1
      vertex 60 25 0
      vertex 65 25 0
    endloop
  endfacet
  facet normal 0 1 -0
    outer loop
      vertex 65 20 0
      vertex 60 20 1
      vertex 65 20 1
    endloop
  endfacet
  facet normal 0 1 0
    outer loop
      vertex 60 20 1
      vertex 65 20 0
      vertex 60 20 0
    endloop
  endfacet
  facet normal 1 -0 0
    outer loop
      vertex 60 0 1
      vertex 60 5 0
      vertex 60 5 1
    endloop
  endfacet
  facet normal 1 0 0
    outer loop
      vertex 60 5 0
      vertex 60 0 1
      vertex 60 0 0
    endloop
  endfacet
  facet normal -1 0 0
    outer loop
      vertex 65 0 0
      vertex 65 5 1
      vertex 65 5 0
    endloop
  endfacet
  facet normal -1 -0 0
    outer loop
      vertex 65 5 1
      vertex 65 0 0
      vertex 65 0 1
    endloop
  endfacet
  facet normal 0 -1 0
    outer loop
      vertex 60 5 0
      vertex 65 5 1
      vertex 60 5 1
    endloop
  endfacet
  facet normal 0 -1 -0
    outer loop
      vertex 65 5 1
      vertex 60 5 0
      vertex 65 5 0
    endloop
  endfacet
  facet normal 1 -0 0
    outer loop
      vertex 40 80 1
      vertex 40 85 0
      vertex 40 85 1
    endloop
  endfacet
  facet normal 1 0 0
    outer loop
      vertex 40 85 0
      vertex 40 80 1
      vertex 40 80 0
    endloop
  endfacet
  facet normal -1 0 0
    outer loop
      vertex 45 80 0
      vertex 45 85 1
      vertex 45 85 0
    endloop
  endfacet
  facet normal -1 -0 0
    outer loop
      vertex 45 85 1
      vertex 45 80 0
      vertex 45 80 1
    endloop
  endfacet
  facet normal 0 -1 0
    outer loop
      vertex 40 85 0
      vertex 45 85 1
      vertex 40 85 1
    endloop
  endfacet
  facet normal 0 -1 -0
    outer loop
      vertex 45 85 1
      vertex 40 85 0
      vertex 45 85 0
    endloop
  endfacet
  facet normal 0 1 -0
    outer loop
      vertex 45 80 0
      vertex 40 80 1
      vertex 45 80 1
    endloop
  endfacet
  facet normal 0 1 0
    outer loop
      vertex 40 80 1
      vertex 45 80 0
      vertex 40 80 0
    endloop
  endfacet
  facet normal 1 -0 0
    outer loop
      vertex 40 60 1
      vertex 40 65 0
      vertex 40 65 1
    endloop
  endfacet
  facet normal 1 0 0
    outer loop
      vertex 40 65 0
      vertex 40 60 1
      vertex 40 60 0
    endloop
  endfacet
  facet normal -1 0 0
    outer loop
      vertex 45 60 0
      vertex 45 65 1
      vertex 45 65 0
    endloop
  endfacet
  facet normal -1 -0 0
    outer loop
      vertex 45 65 1
      vertex 45 60 0
      vertex 45 60 1
    endloop
  endfacet
  facet normal 0 -1 0
    outer loop
      vertex 40 65 0
      vertex 45 65 1
      vertex 40 65 1
    endloop
  endfacet
  facet normal 0 -1 -0
    outer loop
      vertex 45 65 1
      vertex 40 65 0
      vertex 45 65 0
    endloop
  endfacet
  facet normal 0 1 -0
    outer loop
      vertex 45 60 0
      vertex 40 60 1
      vertex 45 60 1
    endloop
  endfacet
  facet normal 0 1 0
    outer loop
      vertex 40 60 1
      vertex 45 60 0
      vertex 40 60 0
    endloop
  endfacet
  facet normal 1 -0 0
    outer loop
      vertex 40 40 1
      vertex 40 45 0
      vertex 40 45 1
    endloop
  endfacet
  facet normal 1 0 0
    outer loop
      vertex 40 45 0
      vertex 40 40 1
      vertex 40 40 0
    endloop
  endfacet
  facet normal -1 0 0
    outer loop
      vertex 45 40 0
      vertex 45 45 1
      vertex 45 45 0
    endloop
  endfacet
  facet normal -1 -0 0
    outer loop
      vertex 45 45 1
      vertex 45 40 0
      vertex 45 40 1
    endloop
  endfacet
  facet normal 0 1 -0
    outer loop
      vertex 45 40 0
      vertex 40 40 1
      vertex 45 40 1
    endloop
  endfacet
  facet normal 0 1 0
    outer loop
      vertex 40 40 1
      vertex 45 40 0
      vertex 40 40 0
    endloop
  endfacet
  facet normal 0 -1 0
    outer loop
      vertex 40 45 0
      vertex 45 45 1
      vertex 40 45 1
    endloop
  endfacet
  facet normal 0 -1 -0
    outer loop
      vertex 45 45 1
      vertex 40 45 0
      vertex 45 45 0
    endloop
  endfacet
  facet normal 1 -0 0
    outer loop
      vertex 40 20 1
      vertex 40 25 0
      vertex 40 25 1
    endloop
  endfacet
  facet normal 1 0 0
    outer loop
      vertex 40 25 0
      vertex 40 20 1
      vertex 40 20 0
    endloop
  endfacet
  facet normal -1 0 0
    outer loop
      vertex 45 20 0
      vertex 45 25 1
      vertex 45 25 0
    endloop
  endfacet
  facet normal -1 -0 0
    outer loop
      vertex 45 25 1
      vertex 45 20 0
      vertex 45 20 1
    endloop
  endfacet
  facet normal 0 -1 0
    outer loop
      vertex 40 25 0
      vertex 45 25 1
      vertex 40 25 1
    endloop
  endfacet
  facet normal 0 -1 -0
    outer loop
      vertex 45 25 1
      vertex 40 25 0
      vertex 45 25 0
    endloop
  endfacet
  facet normal 0 1 -0
    outer loop
      vertex 45 20 0
      vertex 40 20 1
      vertex 45 20 1
    endloop
  endfacet
  facet normal 0 1 0
    outer loop
      vertex 40 20 1
      vertex 45 20 0
      vertex 40 20 0
    endloop
  endfacet
  facet normal 1 -0 0
    outer loop
      vertex 40 0 1
      vertex 40 5 0
      vertex 40 5 1
    endloop
  endfacet
  facet normal 1 0 0
    outer loop
      vertex 40 5 0
      vertex 40 0 1
      vertex 40 0 0
    endloop
  endfacet
  facet normal -1 0 0
    outer loop
      vertex 45 0 0
      vertex 45 5 1
      vertex 45 5 0
    endloop
  endfacet
  facet normal -1 -0 0
    outer loop
      vertex 45 5 1
      vertex 45 0 0
      vertex 45 0 1
    endloop
  endfacet
  facet normal 0 -1 0
    outer loop
      vertex 40 5 0
      vertex 45 5 1
      vertex 40 5 1
    endloop
  endfacet
  facet normal 0 -1 -0
    outer loop
      vertex 45 5 1
      vertex 40 5 0
      vertex 45 5 0
    endloop
  endfacet
  facet normal 1 -0 0
    outer loop
      vertex 20 80 1
      vertex 20 85 0
      vertex 20 85 1
    endloop
  endfacet
  facet normal 1 0 0
    outer loop
      vertex 20 85 0
      vertex 20 80 1
      vertex 20 80 0
    endloop
  endfacet
  facet normal -1 0 0
    outer loop
      vertex 25 80 0
      vertex 25 85 1
      vertex 25 85 0
    endloop
  endfacet
  facet normal -1 -0 0
    outer loop
      vertex 25 85 1
      vertex 25 80 0
      vertex 25 80 1
    endloop
  endfacet
  facet normal 0 -1 0
    outer loop
      vertex 20 85 0
      vertex 25 85 1
      vertex 20 85 1
    endloop
  endfacet
  facet normal 0 -1 -0
    outer loop
      vertex 25 85 1
      vertex 20 85 0
      vertex 25 85 0
    endloop
  endfacet
  facet normal 0 1 -0
    outer loop
      vertex 25 80 0
      vertex 20 80 1
      vertex 25 80 1
    endloop
  endfacet
  facet normal 0 1 0
    outer loop
      vertex 20 80 1
      vertex 25 80 0
      vertex 20 80 0
    endloop
  endfacet
  facet normal 1 -0 0
    outer loop
      vertex 20 60 1
      vertex 20 65 0
      vertex 20 65 1
    endloop
  endfacet
  facet normal 1 0 0
    outer loop
      vertex 20 65 0
      vertex 20 60 1
      vertex 20 60 0
    endloop
  endfacet
  facet normal -1 0 0
    outer loop
      vertex 25 60 0
      vertex 25 65 1
      vertex 25 65 0
    endloop
  endfacet
  facet normal -1 -0 0
    outer loop
      vertex 25 65 1
      vertex 25 60 0
      vertex 25 60 1
    endloop
  endfacet
  facet normal 0 -1 0
    outer loop
      vertex 20 65 0
      vertex 25 65 1
      vertex 20 65 1
    endloop
  endfacet
  facet normal 0 -1 -0
    outer loop
      vertex 25 65 1
      vertex 20 65 0
      vertex 25 65 0
    endloop
  endfacet
  facet normal 0 1 -0
    outer loop
      vertex 25 60 0
      vertex 20 60 1
      vertex 25 60 1
    endloop
  endfacet
  facet normal 0 1 0
    outer loop
      vertex 20 60 1
      vertex 25 60 0
      vertex 20 60 0
    endloop
  endfacet
  facet normal 1 -0 0
    outer loop
      vertex 20 40 1
      vertex 20 45 0
      vertex 20 45 1
    endloop
  endfacet
  facet normal 1 0 0
    outer loop
      vertex 20 45 0
      vertex 20 40 1
      vertex 20 40 0
    endloop
  endfacet
  facet normal -1 0 0
    outer loop
      vertex 25 40 0
      vertex 25 45 1
      vertex 25 45 0
    endloop
  endfacet
  facet normal -1 -0 0
    outer loop
      vertex 25 45 1
      vertex 25 40 0
      vertex 25 40 1
    endloop
  endfacet
  facet normal 0 -1 0
    outer loop
      vertex 20 45 0
      vertex 25 45 1
      vertex 20 45 1
    endloop
  endfacet
  facet normal 0 -1 -0
    outer loop
      vertex 25 45 1
      vertex 20 45 0
      vertex 25 45 0
    endloop
  endfacet
  facet normal 0 1 -0
    outer loop
      vertex 25 40 0
      vertex 20 40 1
      vertex 25 40 1
    endloop
  endfacet
  facet normal 0 1 0
    outer loop
      vertex 20 40 1
      vertex 25 40 0
      vertex 20 40 0
    endloop
  endfacet
  facet normal 1 -0 0
    outer loop
      vertex 20 20 1
      vertex 20 25 0
      vertex 20 25 1
    endloop
  endfacet
  facet normal 1 0 0
    outer loop
      vertex 20 25 0
      vertex 20 20 1
      vertex 20 20 0
    endloop
  endfacet
  facet normal -1 0 0
    outer loop
      vertex 25 20 0
      vertex 25 25 1
      vertex 25 25 0
    endloop
  endfacet
  facet normal -1 -0 0
    outer loop
      vertex 25 25 1
      vertex 25 20 0
      vertex 25 20 1
    endloop
  endfacet
  facet normal 0 -1 0
    outer loop
      vertex 20 25 0
      vertex 25 25 1
      vertex 20 25 1
    endloop
  endfacet
  facet normal 0 -1 -0
    outer loop
      vertex 25 25 1
      vertex 20 25 0
      vertex 25 25 0
    endloop
  endfacet
  facet normal 0 1 -0
    outer loop
      vertex 25 20 0
      vertex 20 20 1
      vertex 25 20 1
    endloop
  endfacet
  facet normal 0 1 0
    outer loop
      vertex 20 20 1
      vertex 25 20 0
      vertex 20 20 0
    endloop
  endfacet
  facet normal 1 -0 0
    outer loop
      vertex 20 0 1
      vertex 20 5 0
      vertex 20 5 1
    endloop
  endfacet
  facet normal 1 0 0
    outer loop
      vertex 20 5 0
      vertex 20 0 1
      vertex 20 0 0
    endloop
  endfacet
  facet normal -1 0 0
    outer loop
      vertex 25 0 0
      vertex 25 5 1
      vertex 25 5 0
    endloop
  endfacet
  facet normal -1 -0 0
    outer loop
      vertex 25 5 1
      vertex 25 0 0
      vertex 25 0 1
    endloop
  endfacet
  facet normal 0 -1 0
    outer loop
      vertex 20 5 0
      vertex 25 5 1
      vertex 20 5 1
    endloop
  endfacet
  facet normal 0 -1 -0
    outer loop
      vertex 25 5 1
      vertex 20 5 0
      vertex 25 5 0
    endloop
  endfacet
  facet normal -1 0 0
    outer loop
      vertex 0 85 0
      vertex 0 90 1
      vertex 0 90 0
    endloop
  endfacet
  facet normal -1 -0 0
    outer loop
      vertex 0 90 1
      vertex 0 85 0
      vertex 0 85 1
    endloop
  endfacet
  facet normal -1 0 0
    outer loop
      vertex 0 5 0
      vertex 0 20 1
      vertex 0 20 0
    endloop
  endfacet
  facet normal -1 -0 0
    outer loop
      vertex 0 20 1
      vertex 0 5 0
      vertex 0 5 1
    endloop
  endfacet
  facet normal -1 0 0
    outer loop
      vertex 0 25 0
      vertex 0 40 1
      vertex 0 40 0
    endloop
  endfacet
  facet normal -1 -0 0
    outer loop
      vertex 0 40 1
      vertex 0 25 0
      vertex 0 25 1
    endloop
  endfacet
  facet normal -1 0 0
    outer loop
      vertex 0 45 0
      vertex 0 60 1
      vertex 0 60 0
    endloop
  endfacet
  facet normal -1 -0 0
    outer loop
      vertex 0 60 1
      vertex 0 45 0
      vertex 0 45 1
    endloop
  endfacet
  facet normal -1 0 0
    outer loop
      vertex 0 65 0
      vertex 0 80 1
      vertex 0 80 0
    endloop
  endfacet
  facet normal -1 -0 0
    outer loop
      vertex 0 80 1
      vertex 0 65 0
      vertex 0 65 1
    endloop
  endfacet
  facet normal -1 0 0
    outer loop
      vertex 5 80 0
      vertex 5 85 1
      vertex 5 85 0
    endloop
  endfacet
  facet normal -1 -0 0
    outer loop
      vertex 5 85 1
      vertex 5 80 0
      vertex 5 80 1
    endloop
  endfacet
  facet normal 0 -1 0
    outer loop
      vertex 0 85 0
      vertex 5 85 1
      vertex 0 85 1
    endloop
  endfacet
  facet normal 0 -1 -0
    outer loop
      vertex 5 85 1
      vertex 0 85 0
      vertex 5 85 0
    endloop
  endfacet
  facet normal 0 1 -0
    outer loop
      vertex 5 80 0
      vertex 0 80 1
      vertex 5 80 1
    endloop
  endfacet
  facet normal 0 1 0
    outer loop
      vertex 0 80 1
      vertex 5 80 0
      vertex 0 80 0
    endloop
  endfacet
  facet normal -1 0 0
    outer loop
      vertex 5 60 0
      vertex 5 65 1
      vertex 5 65 0
    endloop
  endfacet
  facet normal -1 -0 0
    outer loop
      vertex 5 65 1
      vertex 5 60 0
      vertex 5 60 1
    endloop
  endfacet
  facet normal 0 -1 0
    outer loop
      vertex 0 65 0
      vertex 5 65 1
      vertex 0 65 1
    endloop
  endfacet
  facet normal 0 -1 -0
    outer loop
      vertex 5 65 1
      vertex 0 65 0
      vertex 5 65 0
    endloop
  endfacet
  facet normal 0 1 -0
    outer loop
      vertex 5 60 0
      vertex 0 60 1
      vertex 5 60 1
    endloop
  endfacet
  facet normal 0 1 0
    outer loop
      vertex 0 60 1
      vertex 5 60 0
      vertex 0 60 0
    endloop
  endfacet
  facet normal -1 0 0
    outer loop
      vertex 5 40 0
      vertex 5 45 1
      vertex 5 45 0
    endloop
  endfacet
  facet normal -1 -0 0
    outer loop
      vertex 5 45 1
      vertex 5 40 0
      vertex 5 40 1
    endloop
  endfacet
  facet normal 0 1 -0
    outer loop
      vertex 5 40 0
      vertex 0 40 1
      vertex 5 40 1
    endloop
  endfacet
  facet normal 0 1 0
    outer loop
      vertex 0 40 1
      vertex 5 40 0
      vertex 0 40 0
    endloop
  endfacet
  facet normal 0 -1 0
    outer loop
      vertex 0 45 0
      vertex 5 45 1
      vertex 0 45 1
    endloop
  endfacet
  facet normal 0 -1 -0
    outer loop
      vertex 5 45 1
      vertex 0 45 0
      vertex 5 45 0
    endloop
  endfacet
  facet normal -1 0 0
    outer loop
      vertex 5 20 0
      vertex 5 25 1
      vertex 5 25 0
    endloop
  endfacet
  facet normal -1 -0 0
    outer loop
      vertex 5 25 1
      vertex 5 20 0
      vertex 5 20 1
    endloop
  endfacet
  facet normal 0 -1 0
    outer loop
      vertex 0 25 0
      vertex 5 25 1
      vertex 0 25 1
    endloop
  endfacet
  facet normal 0 -1 -0
    outer loop
      vertex 5 25 1
      vertex 0 25 0
      vertex 5 25 0
    endloop
  endfacet
  facet normal 0 1 -0
    outer loop
      vertex 5 20 0
      vertex 0 20 1
      vertex 5 20 1
    endloop
  endfacet
  facet normal 0 1 0
    outer loop
      vertex 0 20 1
      vertex 5 20 0
      vertex 0 20 0
    endloop
  endfacet
  facet normal -1 0 0
    outer loop
      vertex 5 0 0
      vertex 5 5 1
      vertex 5 5 0
    endloop
  endfacet
  facet normal -1 -0 0
    outer loop
      vertex 5 5 1
      vertex 5 0 0
      vertex 5 0 1
    endloop
  endfacet
  facet normal 0 -1 0
    outer loop
      vertex 0 5 0
      vertex 5 5 1
      vertex 0 5 1
    endloop
  endfacet
  facet normal 0 -1 -0
    outer loop
      vertex 5 5 1
      vertex 0 5 0
      vertex 5 5 0
    endloop
  endfacet
  facet normal 1 -0 0
    outer loop
      vertex 90 0 1
      vertex 90 90 0
      vertex 90 90 1
    endloop
  endfacet
  facet normal 1 0 0
    outer loop
      vertex 90 90 0
      vertex 90 0 1
      vertex 90 0 0
    endloop
  endfacet
  facet normal 0 1 -0
    outer loop
      vertex 90 90 0
      vertex 0 90 1
      vertex 90 90 1
    endloop
  endfacet
  facet normal 0 1 0
    outer loop
      vertex 0 90 1
      vertex 90 90 0
      vertex 0 90 0
    endloop
  endfacet
endsolid OpenSCAD_Model
